<?xml version="1.0" encoding="UTF-8"?>
<svg xmlns="http://www.w3.org/2000/svg" xmlns:xlink="http://www.w3.org/1999/xlink" width="13pt" height="13pt" viewBox="0 0 13 13" version="1.1">
<g id="surface1">
<path style=" stroke:none;fill-rule:nonzero;fill:rgb(0%,0%,0%);fill-opacity:1;" d="M 3.25 0 C 2.992188 0 2.785156 0.207031 2.785156 0.464844 L 2.785156 1.394531 L 3.714844 1.394531 L 3.714844 0.464844 C 3.714844 0.207031 3.507812 0 3.25 0 Z M 3.25 0 "/>
<path style=" stroke:none;fill-rule:nonzero;fill:rgb(0%,0%,0%);fill-opacity:1;" d="M 9.75 0 C 9.492188 0 9.285156 0.207031 9.285156 0.464844 L 9.285156 1.394531 L 10.214844 1.394531 L 10.214844 0.464844 C 10.214844 0.207031 10.007812 0 9.75 0 Z M 9.75 0 "/>
<path style=" stroke:none;fill-rule:nonzero;fill:rgb(0%,0%,0%);fill-opacity:1;" d="M 11.605469 1.394531 L 10.214844 1.394531 L 10.214844 3.25 C 10.214844 3.507812 10.007812 3.714844 9.75 3.714844 C 9.492188 3.714844 9.285156 3.507812 9.285156 3.25 L 9.285156 1.394531 L 3.714844 1.394531 L 3.714844 3.25 C 3.714844 3.507812 3.507812 3.714844 3.25 3.714844 C 2.992188 3.714844 2.785156 3.507812 2.785156 3.25 L 2.785156 1.394531 L 1.394531 1.394531 C 0.625 1.394531 0 2.015625 0 2.785156 L 0 11.605469 C 0 12.375 0.625 13 1.394531 13 L 11.605469 13 C 12.375 13 13 12.375 13 11.605469 L 13 2.785156 C 13 2.015625 12.375 1.394531 11.605469 1.394531 Z M 12.070312 11.605469 C 12.070312 11.863281 11.863281 12.070312 11.605469 12.070312 L 1.394531 12.070312 C 1.136719 12.070312 0.929688 11.863281 0.929688 11.605469 L 0.929688 5.570312 L 12.070312 5.570312 Z M 12.070312 11.605469 "/>
<path style=" stroke:none;fill-rule:nonzero;fill:rgb(0%,0%,0%);fill-opacity:1;" d="M 3.714844 6.5 L 2.785156 6.5 C 2.527344 6.5 2.320312 6.707031 2.320312 6.964844 C 2.320312 7.222656 2.527344 7.429688 2.785156 7.429688 L 3.714844 7.429688 C 3.96875 7.429688 4.179688 7.222656 4.179688 6.964844 C 4.179688 6.707031 3.96875 6.5 3.714844 6.5 Z M 3.714844 6.5 "/>
<path style=" stroke:none;fill-rule:nonzero;fill:rgb(0%,0%,0%);fill-opacity:1;" d="M 6.964844 6.5 L 6.035156 6.5 C 5.777344 6.5 5.570312 6.707031 5.570312 6.964844 C 5.570312 7.222656 5.777344 7.429688 6.035156 7.429688 L 6.964844 7.429688 C 7.222656 7.429688 7.429688 7.222656 7.429688 6.964844 C 7.429688 6.707031 7.222656 6.5 6.964844 6.5 Z M 6.964844 6.5 "/>
<path style=" stroke:none;fill-rule:nonzero;fill:rgb(0%,0%,0%);fill-opacity:1;" d="M 10.214844 6.5 L 9.285156 6.5 C 9.03125 6.5 8.820312 6.707031 8.820312 6.964844 C 8.820312 7.222656 9.03125 7.429688 9.285156 7.429688 L 10.214844 7.429688 C 10.472656 7.429688 10.679688 7.222656 10.679688 6.964844 C 10.679688 6.707031 10.46875 6.5 10.214844 6.5 Z M 10.214844 6.5 "/>
<path style=" stroke:none;fill-rule:nonzero;fill:rgb(0%,0%,0%);fill-opacity:1;" d="M 3.714844 8.355469 L 2.785156 8.355469 C 2.527344 8.355469 2.320312 8.566406 2.320312 8.820312 C 2.320312 9.078125 2.527344 9.285156 2.785156 9.285156 L 3.714844 9.285156 C 3.96875 9.285156 4.179688 9.078125 4.179688 8.820312 C 4.179688 8.566406 3.96875 8.355469 3.714844 8.355469 Z M 3.714844 8.355469 "/>
<path style=" stroke:none;fill-rule:nonzero;fill:rgb(0%,0%,0%);fill-opacity:1;" d="M 6.964844 8.355469 L 6.035156 8.355469 C 5.777344 8.355469 5.570312 8.566406 5.570312 8.820312 C 5.570312 9.078125 5.777344 9.285156 6.035156 9.285156 L 6.964844 9.285156 C 7.222656 9.285156 7.429688 9.078125 7.429688 8.820312 C 7.429688 8.566406 7.222656 8.355469 6.964844 8.355469 Z M 6.964844 8.355469 "/>
<path style=" stroke:none;fill-rule:nonzero;fill:rgb(0%,0%,0%);fill-opacity:1;" d="M 10.214844 8.355469 L 9.285156 8.355469 C 9.03125 8.355469 8.820312 8.566406 8.820312 8.820312 C 8.820312 9.078125 9.03125 9.285156 9.285156 9.285156 L 10.214844 9.285156 C 10.472656 9.285156 10.679688 9.078125 10.679688 8.820312 C 10.679688 8.566406 10.46875 8.355469 10.214844 8.355469 Z M 10.214844 8.355469 "/>
<path style=" stroke:none;fill-rule:nonzero;fill:rgb(0%,0%,0%);fill-opacity:1;" d="M 3.714844 10.214844 L 2.785156 10.214844 C 2.527344 10.214844 2.320312 10.421875 2.320312 10.679688 C 2.320312 10.933594 2.527344 11.144531 2.785156 11.144531 L 3.714844 11.144531 C 3.96875 11.144531 4.179688 10.933594 4.179688 10.679688 C 4.179688 10.421875 3.96875 10.214844 3.714844 10.214844 Z M 3.714844 10.214844 "/>
<path style=" stroke:none;fill-rule:nonzero;fill:rgb(0%,0%,0%);fill-opacity:1;" d="M 6.964844 10.214844 L 6.035156 10.214844 C 5.777344 10.214844 5.570312 10.421875 5.570312 10.679688 C 5.570312 10.933594 5.777344 11.144531 6.035156 11.144531 L 6.964844 11.144531 C 7.222656 11.144531 7.429688 10.933594 7.429688 10.679688 C 7.429688 10.421875 7.222656 10.214844 6.964844 10.214844 Z M 6.964844 10.214844 "/>
<path style=" stroke:none;fill-rule:nonzero;fill:rgb(0%,0%,0%);fill-opacity:1;" d="M 10.214844 10.214844 L 9.285156 10.214844 C 9.03125 10.214844 8.820312 10.421875 8.820312 10.679688 C 8.820312 10.933594 9.03125 11.144531 9.285156 11.144531 L 10.214844 11.144531 C 10.472656 11.144531 10.679688 10.933594 10.679688 10.679688 C 10.679688 10.421875 10.46875 10.214844 10.214844 10.214844 Z M 10.214844 10.214844 "/>
</g>
</svg>
