<?xml version="1.0" encoding="UTF-8"?>
<svg xmlns="http://www.w3.org/2000/svg" xmlns:xlink="http://www.w3.org/1999/xlink" width="6pt" height="10pt" viewBox="0 0 6 10" version="1.1">
<g id="surface1">
<path style=" stroke:none;fill-rule:nonzero;fill:rgb(0%,0%,0%);fill-opacity:1;" d="M 5.0625 0 L 0.5625 0 C 0.253906 0 0 0.421875 0 0.9375 L 0 9.0625 C 0 9.578125 0.253906 10 0.5625 10 L 5.0625 10 C 5.371094 10 5.625 9.578125 5.625 9.0625 L 5.625 0.9375 C 5.625 0.421875 5.371094 0 5.0625 0 Z M 4.875 8.75 L 0.75 8.75 L 0.75 1.25 L 4.875 1.25 Z M 1.5 4.375 L 4.125 4.375 L 4.125 5 L 1.5 5 Z M 1.5 5.625 L 4.125 5.625 L 4.125 6.25 L 1.5 6.25 Z M 1.5 6.875 L 4.125 6.875 L 4.125 7.5 L 1.5 7.5 Z M 1.5 3.125 L 4.125 3.125 L 4.125 3.75 L 1.5 3.75 Z M 1.5 3.125 "/>
</g>
</svg>
