<?xml version="1.0" encoding="UTF-8"?>
<svg xmlns="http://www.w3.org/2000/svg" xmlns:xlink="http://www.w3.org/1999/xlink" width="40pt" height="40pt" viewBox="0 0 40 40" version="1.1">
<g id="surface1">
<path style=" stroke:none;fill-rule:nonzero;fill:rgb(0%,0%,0%);fill-opacity:1;" d="M 32.84375 0 L 7.15625 0 C 3.210938 0 0 3.210938 0 7.15625 L 0 32.84375 C 0 36.789062 3.210938 40 7.15625 40 L 32.84375 40 C 36.789062 40 40 36.789062 40 32.84375 L 40 7.15625 C 40 3.210938 36.789062 0 32.84375 0 Z M 37.65625 32.84375 C 37.65625 35.496094 35.496094 37.65625 32.84375 37.65625 L 7.15625 37.65625 C 4.503906 37.65625 2.34375 35.496094 2.34375 32.84375 L 2.34375 7.15625 C 2.34375 4.503906 4.503906 2.34375 7.15625 2.34375 L 32.84375 2.34375 C 35.496094 2.34375 37.65625 4.503906 37.65625 7.15625 Z M 37.65625 32.84375 "/>
<path style=" stroke:none;fill-rule:nonzero;fill:rgb(0%,0%,0%);fill-opacity:1;" d="M 33.808594 8.785156 L 15.957031 8.785156 C 15.46875 7.328125 14.089844 6.277344 12.46875 6.277344 C 10.847656 6.277344 9.46875 7.328125 8.980469 8.785156 L 6.191406 8.785156 C 5.546875 8.785156 5.019531 9.3125 5.019531 9.957031 C 5.019531 10.605469 5.546875 11.128906 6.191406 11.128906 L 8.980469 11.128906 C 9.46875 12.585938 10.847656 13.640625 12.46875 13.640625 C 14.089844 13.640625 15.46875 12.585938 15.957031 11.128906 L 33.808594 11.128906 C 34.453125 11.128906 34.980469 10.605469 34.980469 9.957031 C 34.980469 9.3125 34.453125 8.785156 33.808594 8.785156 Z M 12.46875 11.296875 C 11.730469 11.296875 11.128906 10.695312 11.128906 9.957031 C 11.128906 9.21875 11.730469 8.621094 12.46875 8.621094 C 13.207031 8.621094 13.808594 9.21875 13.808594 9.957031 C 13.808594 10.695312 13.207031 11.296875 12.46875 11.296875 Z M 12.46875 11.296875 "/>
<path style=" stroke:none;fill-rule:nonzero;fill:rgb(0%,0%,0%);fill-opacity:1;" d="M 33.808594 18.828125 L 31.019531 18.828125 C 30.53125 17.371094 29.152344 16.316406 27.53125 16.316406 C 25.910156 16.316406 24.53125 17.371094 24.042969 18.828125 L 6.191406 18.828125 C 5.546875 18.828125 5.019531 19.351562 5.019531 20 C 5.019531 20.648438 5.546875 21.171875 6.191406 21.171875 L 24.042969 21.171875 C 24.53125 22.628906 25.910156 23.683594 27.53125 23.683594 C 29.152344 23.683594 30.53125 22.628906 31.019531 21.171875 L 33.808594 21.171875 C 34.453125 21.171875 34.980469 20.648438 34.980469 20 C 34.980469 19.351562 34.453125 18.828125 33.808594 18.828125 Z M 27.53125 21.339844 C 26.792969 21.339844 26.191406 20.738281 26.191406 20 C 26.191406 19.261719 26.792969 18.660156 27.53125 18.660156 C 28.269531 18.660156 28.871094 19.261719 28.871094 20 C 28.871094 20.738281 28.269531 21.339844 27.53125 21.339844 Z M 27.53125 21.339844 "/>
<path style=" stroke:none;fill-rule:nonzero;fill:rgb(0%,0%,0%);fill-opacity:1;" d="M 33.808594 28.871094 L 20.980469 28.871094 C 20.488281 27.414062 19.109375 26.359375 17.488281 26.359375 C 15.867188 26.359375 14.492188 27.414062 14 28.871094 L 6.191406 28.871094 C 5.546875 28.871094 5.019531 29.394531 5.019531 30.042969 C 5.019531 30.6875 5.546875 31.214844 6.191406 31.214844 L 14 31.214844 C 14.492188 32.671875 15.867188 33.722656 17.488281 33.722656 C 19.109375 33.722656 20.488281 32.671875 20.980469 31.214844 L 33.808594 31.214844 C 34.453125 31.214844 34.980469 30.6875 34.980469 30.042969 C 34.980469 29.394531 34.453125 28.871094 33.808594 28.871094 Z M 17.488281 31.378906 C 16.75 31.378906 16.152344 30.78125 16.152344 30.042969 C 16.152344 29.304688 16.75 28.703125 17.488281 28.703125 C 18.226562 28.703125 18.828125 29.304688 18.828125 30.042969 C 18.828125 30.78125 18.226562 31.378906 17.488281 31.378906 Z M 17.488281 31.378906 "/>
</g>
</svg>
