<?xml version="1.0" encoding="UTF-8"?>
<svg xmlns="http://www.w3.org/2000/svg" xmlns:xlink="http://www.w3.org/1999/xlink" width="12pt" height="12pt" viewBox="0 0 12 12" version="1.1">
<g id="surface1">
<path style=" stroke:none;fill-rule:nonzero;fill:rgb(0%,0%,0%);fill-opacity:1;" d="M 11.925781 5.824219 L 8.175781 2.074219 C 8.078125 1.976562 7.921875 1.976562 7.824219 2.074219 C 7.726562 2.171875 7.726562 2.328125 7.824219 2.425781 L 11.148438 5.75 L 0.25 5.75 C 0.113281 5.75 0 5.863281 0 6 C 0 6.136719 0.113281 6.25 0.25 6.25 L 11.148438 6.25 L 7.824219 9.574219 C 7.726562 9.671875 7.726562 9.828125 7.824219 9.925781 C 7.871094 9.976562 7.9375 10 8 10 C 8.0625 10 8.128906 9.976562 8.175781 9.925781 L 11.925781 6.175781 C 12.023438 6.078125 12.023438 5.921875 11.925781 5.824219 Z M 11.925781 5.824219 "/>
</g>
</svg>
