<?xml version="1.0" encoding="UTF-8"?>
<svg xmlns="http://www.w3.org/2000/svg" xmlns:xlink="http://www.w3.org/1999/xlink" width="13pt" height="13pt" viewBox="0 0 13 13" version="1.1">
<g id="surface1">
<path style=" stroke:none;fill-rule:nonzero;fill:#fff;fill-opacity:1;" d="M 6.5 7.324219 C 2.59375 7.324219 0.441406 9.171875 0.441406 12.527344 C 0.441406 12.789062 0.65625 13 0.917969 13 L 12.082031 13 C 12.34375 13 12.558594 12.789062 12.558594 12.527344 C 12.558594 9.171875 10.40625 7.324219 6.5 7.324219 Z M 1.410156 12.050781 C 1.59375 9.542969 3.304688 8.269531 6.5 8.269531 C 9.695312 8.269531 11.40625 9.542969 11.589844 12.050781 Z M 1.410156 12.050781 "/>
<path style=" stroke:none;fill-rule:nonzero;fill:#fff;fill-opacity:1;" d="M 6.5 0 C 4.707031 0 3.351562 1.378906 3.351562 3.210938 C 3.351562 5.09375 4.765625 6.625 6.5 6.625 C 8.234375 6.625 9.648438 5.09375 9.648438 3.210938 C 9.648438 1.378906 8.292969 0 6.5 0 Z M 6.5 5.675781 C 5.289062 5.675781 4.300781 4.570312 4.300781 3.210938 C 4.300781 1.898438 5.226562 0.949219 6.5 0.949219 C 7.753906 0.949219 8.699219 1.921875 8.699219 3.210938 C 8.699219 4.570312 7.710938 5.675781 6.5 5.675781 Z M 6.5 5.675781 "/>
</g>
</svg>
